<?xml version="1.0" encoding="UTF-8" standalone="no"?>
<svg xmlns="http://www.w3.org/2000/svg" viewBox="0 0 500 500" width="500" height="500">
  <!-- Fondo circular -->
  <circle cx="250" cy="250" r="240" fill="black" />
  
  <!-- Cabeza de toro estilizada -->
  <g id="bull-head">
    <!-- Contorno principal - azul -->
    <path d="M250 110
             C180 110, 120 150, 90 210
             C70 250, 70 300, 90 340
             C110 380, 140 410, 180 425
             C210 435, 240 440, 270 435
             C300 430, 330 420, 360 400
             C390 380, 410 350, 420 310
             C430 270, 430 230, 420 190
             C410 150, 380 120, 340 110
             C320 100, 290 100, 270 105
             C260 110, 250 110, 250 110 Z" 
          fill="#2563eb" /> <!-- Azul -->
    
    <!-- Cuernos -->
    <path d="M110 190
             C90 170, 70 140, 60 110
             C55 95, 55 80, 60 70
             C65 60, 75 55, 85 60
             C95 65, 100 80, 105 100
             C110 120, 120 150, 130 170
             L110 190 Z" 
          fill="#2563eb" /> <!-- Azul -->
    
    <path d="M390 190
             C410 170, 430 140, 440 110
             C445 95, 445 80, 440 70
             C435 60, 425 55, 415 60
             C405 65, 400 80, 395 100
             C390 120, 380 150, 370 170
             L390 190 Z" 
          fill="#2563eb" /> <!-- Azul -->
    
    <!-- Detalles rosa -->
    <path d="M250 150
             C220 150, 190 170, 180 200
             C170 230, 180 270, 210 290
             C240 310, 280 310, 310 290
             C340 270, 350 230, 340 200
             C330 170, 300 150, 270 150
             C260 150, 250 150, 250 150 Z" 
          fill="#ec4899" /> <!-- Rosa -->
    
    <!-- Ojos -->
    <circle cx="200" cy="230" r="15" fill="white" />
    <circle cx="300" cy="230" r="15" fill="white" />
    <circle cx="200" cy="230" r="8" fill="black" />
    <circle cx="300" cy="230" r="8" fill="black" />
    
    <!-- Nariz -->
    <path d="M230 270
             C240 280, 260 280, 270 270
             C280 260, 280 250, 270 240
             C260 230, 240 230, 230 240
             C220 250, 220 260, 230 270 Z" 
          fill="#111111" />
  </g>
</svg>